<svg xmlns="http://www.w3.org/2000/svg" viewBox="0 0 200 150" role="img" aria-label="den">
  <path d="M6 146 C6 70 44 12 100 10 C156 12 194 70 194 146 Z" fill="#5E8C6E"/>
  <path d="M40 146 C40 88 66 46 100 44 C134 46 160 88 160 146 Z" fill="#16191C"/>
  <g fill="#79A889">
    <path d="M150 64 C160 52 172 52 178 58 C170 66 160 68 150 64 Z"/>
    <path d="M162 52 C164 40 174 36 182 40 C178 48 170 52 162 52 Z"/>
    <path d="M24 92 C16 80 20 70 28 68 C32 78 30 86 24 92 Z"/>
  </g>
  <circle cx="170" cy="44" r="3.5" fill="#E3B35C"/>
</svg>
