<svg xmlns="http://www.w3.org/2000/svg" width="128" height="128" viewBox="0 0 32 32" role="img" aria-label="plex-htpc icon">
  <!-- Generated by tools/classicart — do not edit by hand. Bear Den's own icon for plex-htpc, Classic: tools/classicart/appicons.py -->
  <defs>
    <linearGradient id="l1" x1="0" y1="0" x2="0" y2="1"><stop offset="0" stop-color="#F2B53A"/><stop offset="1" stop-color="#B5780A"/></linearGradient>
    <linearGradient id="l2" x1="0" y1="0" x2="0" y2="1"><stop offset="0" stop-color="#FFFFFF" stop-opacity="0.28"/><stop offset="1" stop-color="#FFFFFF" stop-opacity="0"/></linearGradient>
    <radialGradient id="r3" cx="0.5" cy="0.5" r="0.5" fx="0.35" fy="0.3"><stop offset="0" stop-color="#FFF6E2"/><stop offset="0.75" stop-color="#F6EAD0"/><stop offset="1" stop-color="#D8C6A2"/></radialGradient>
  </defs>
  <circle cx="7.5" cy="4.9" r="3.9" fill="#120E0C"/>
  <circle cx="7.5" cy="4.9" r="3.1" fill="#8A5A06"/>
  <circle cx="7.5" cy="4.6" r="1.5" fill="#F6D27A"/>
  <circle cx="24.5" cy="4.9" r="3.9" fill="#120E0C"/>
  <circle cx="24.5" cy="4.9" r="3.1" fill="#8A5A06"/>
  <circle cx="24.5" cy="4.6" r="1.5" fill="#F6D27A"/>
  <rect x="1.6" y="4.6" width="28.8" height="26.8" rx="5.4" fill="#120E0C"/>
  <rect x="2.4" y="5.4" width="27.2" height="25.2" rx="4.8" fill="url(#l1)"/>
  <rect x="4.5" y="6.2" width="23" height="3" rx="1.5" fill="url(#l2)"/>
  <rect x="18" y="22" width="10" height="6" rx="0.6" fill="#1A1210"/>
  <rect x="19" y="22.8" width="1" height="0.9" rx="0.2" fill="#D8C6A2"/>
  <rect x="19" y="26.2" width="1" height="0.9" rx="0.2" fill="#D8C6A2"/>
  <rect x="21" y="22.8" width="1" height="0.9" rx="0.2" fill="#D8C6A2"/>
  <rect x="21" y="26.2" width="1" height="0.9" rx="0.2" fill="#D8C6A2"/>
  <rect x="23" y="22.8" width="1" height="0.9" rx="0.2" fill="#D8C6A2"/>
  <rect x="23" y="26.2" width="1" height="0.9" rx="0.2" fill="#D8C6A2"/>
  <rect x="25" y="22.8" width="1" height="0.9" rx="0.2" fill="#D8C6A2"/>
  <rect x="25" y="26.2" width="1" height="0.9" rx="0.2" fill="#D8C6A2"/>
  <rect x="27" y="22.8" width="1" height="0.9" rx="0.2" fill="#D8C6A2"/>
  <rect x="27" y="26.2" width="1" height="0.9" rx="0.2" fill="#D8C6A2"/>
  <rect x="19" y="24" width="8" height="2" fill="#6A4A1A"/>
  <circle cx="14.9" cy="19.1" r="8.4" fill="#000000" fill-opacity="0.25"/>
  <circle cx="14.5" cy="18.5" r="8.2" fill="url(#r3)"/>
  <circle cx="14.5" cy="13.8" r="1.7" fill="#8A5A06"/>
  <circle cx="18.97" cy="17.05" r="1.7" fill="#8A5A06"/>
  <circle cx="17.26" cy="22.3" r="1.7" fill="#8A5A06"/>
  <circle cx="11.74" cy="22.3" r="1.7" fill="#8A5A06"/>
  <circle cx="10.03" cy="17.05" r="1.7" fill="#8A5A06"/>
  <circle cx="14.5" cy="18.5" r="1.2" fill="#1A1210"/>
</svg>
