<svg xmlns="http://www.w3.org/2000/svg" width="128" height="128" viewBox="0 0 32 32" role="img" aria-label="retroarch icon">
  <!-- Generated by tools/classicart — do not edit by hand. Bear Den's own icon for retroarch, Classic: tools/classicart/appicons.py -->
  <defs>
    <linearGradient id="l1" x1="0" y1="0" x2="0" y2="1"><stop offset="0" stop-color="#3E3478"/><stop offset="1" stop-color="#141030"/></linearGradient>
    <linearGradient id="l2" x1="0" y1="0" x2="0" y2="1"><stop offset="0" stop-color="#FFFFFF" stop-opacity="0.28"/><stop offset="1" stop-color="#FFFFFF" stop-opacity="0"/></linearGradient>
    <linearGradient id="l3" x1="0" y1="0" x2="1" y2="0"><stop offset="0" stop-color="#8A2A24"/><stop offset="0.12" stop-color="#E0564A"/><stop offset="0.88" stop-color="#E0564A"/><stop offset="1" stop-color="#8A2A24"/></linearGradient>
    <linearGradient id="l4" x1="0" y1="0" x2="0" y2="1"><stop offset="0" stop-color="#FFF4C8"/><stop offset="1" stop-color="#FFD34F"/></linearGradient>
    <radialGradient id="r5" cx="0.5" cy="0.5" r="0.5"><stop offset="0" stop-color="#3A6A9A"/><stop offset="1" stop-color="#1A2A4A"/></radialGradient>
    <linearGradient id="l6" x1="0" y1="0" x2="0" y2="1"><stop offset="0" stop-color="#F8A090"/><stop offset="1" stop-color="#E0564A"/></linearGradient>
    <radialGradient id="r7" cx="0.5" cy="0.5" r="0.5" fx="0.35" fy="0.3"><stop offset="0" stop-color="#8AB0FF"/><stop offset="1" stop-color="#2A5AC8"/></radialGradient>
  </defs>
  <circle cx="7.5" cy="4.9" r="3.9" fill="#120E0C"/>
  <circle cx="7.5" cy="4.9" r="3.1" fill="#221C4A"/>
  <circle cx="7.5" cy="4.6" r="1.5" fill="#7A6AC8"/>
  <circle cx="24.5" cy="4.9" r="3.9" fill="#120E0C"/>
  <circle cx="24.5" cy="4.9" r="3.1" fill="#221C4A"/>
  <circle cx="24.5" cy="4.6" r="1.5" fill="#7A6AC8"/>
  <rect x="1.6" y="4.6" width="28.8" height="26.8" rx="5.4" fill="#120E0C"/>
  <rect x="2.4" y="5.4" width="27.2" height="25.2" rx="4.8" fill="url(#l1)"/>
  <rect x="4.5" y="6.2" width="23" height="3" rx="1.5" fill="url(#l2)"/>
  <rect x="8.4" y="6.6" width="15.2" height="23" rx="1.4" fill="url(#l3)"/>
  <rect x="9" y="7" width="14" height="4" rx="1" fill="url(#l4)"/>
  <rect x="10.6" y="11.8" width="10.8" height="8.4" rx="1.2" fill="#1A1210"/>
  <rect x="11.6" y="12.8" width="8.8" height="6.4" rx="0.8" fill="url(#r5)"/>
  <circle cx="14" cy="13.9" r="0.9" fill="#C89A6A"/>
  <circle cx="18" cy="13.9" r="0.9" fill="#C89A6A"/>
  <ellipse cx="16" cy="16" rx="2.8" ry="2.3" fill="#E8C89A"/>
  <circle cx="15" cy="15.4" r="0.35" fill="#1A1210"/>
  <circle cx="17" cy="15.4" r="0.35" fill="#1A1210"/>
  <circle cx="16" cy="16.5" r="0.4" fill="#1A1210"/>
  <path d="M8 21 L24 21 L25.2 24.4 L6.8 24.4 Z" fill="url(#l6)"/>
  <path d="M12 22.4 L12 19.6" fill="none" stroke="#2A2A2E" stroke-width="0.7" stroke-linecap="round"/>
  <circle cx="12" cy="19.2" r="1.3" fill="url(#r7)"/>
  <circle cx="17" cy="22.6" r="0.8" fill="#FFD34F"/>
  <circle cx="20" cy="22.6" r="0.8" fill="#4FD86A"/>
  <rect x="13" y="25.6" width="6" height="2.4" rx="0.5" fill="#8A2A24"/>
  <rect x="15.5" y="26.2" width="1" height="1" rx="0.2" fill="#FFD34F"/>
</svg>
