<svg xmlns="http://www.w3.org/2000/svg" width="704" height="368" viewBox="0 0 176 92" role="img" aria-label="retro corner">
  <!-- Generated by tools/classicart — do not edit by hand. Featured-panel room "hero-retro", Classic: tools/classicart/hero.py -->
  <defs>
    <linearGradient id="l1" x1="0" y1="0" x2="0" y2="1"><stop offset="0" stop-color="#42305A"/><stop offset="1" stop-color="#2E2040"/></linearGradient>
    <linearGradient id="l2" x1="0" y1="0" x2="0" y2="1"><stop offset="0" stop-color="#5A3A28"/><stop offset="1" stop-color="#2E1C12"/></linearGradient>
    <radialGradient id="r3" cx="0.5" cy="0.5" r="0.5"><stop offset="0" stop-color="#9A4468"/><stop offset="1" stop-color="#5A2440"/></radialGradient>
    <radialGradient id="r4" cx="0.5" cy="0.5" r="0.5"><stop offset="0" stop-color="#5AAA6A"/><stop offset="1" stop-color="#2A6A3A"/></radialGradient>
    <linearGradient id="l5" x1="0" y1="0" x2="1" y2="0"><stop offset="0" stop-color="#FF7A8A"/><stop offset="1" stop-color="#C0304A"/></linearGradient>
    <linearGradient id="l6" x1="0" y1="0" x2="0" y2="1"><stop offset="0" stop-color="#B07A4A"/><stop offset="1" stop-color="#6A4424"/></linearGradient>
    <linearGradient id="l7" x1="0" y1="0" x2="0" y2="1"><stop offset="0" stop-color="#EAE2CC"/><stop offset="0.5" stop-color="#C8BFA8"/><stop offset="1" stop-color="#9A927E"/></linearGradient>
    <radialGradient id="r8" cx="0.5" cy="0.5" r="0.5"><stop offset="0" stop-color="#1A2034"/><stop offset="1" stop-color="#06080E"/></radialGradient>
    <radialGradient id="r9" cx="0.5" cy="0.5" r="0.5" fx="0.35" fy="0.3"><stop offset="0" stop-color="#8A8474"/><stop offset="1" stop-color="#4A4438"/></radialGradient>
    <radialGradient id="r10" cx="0.5" cy="0.5" r="0.5" fx="0.35" fy="0.3"><stop offset="0" stop-color="#8A8474"/><stop offset="1" stop-color="#4A4438"/></radialGradient>
    <linearGradient id="l11" x1="0" y1="0" x2="0" y2="1"><stop offset="0" stop-color="#3A3A44"/><stop offset="1" stop-color="#16161C"/></linearGradient>
    <radialGradient id="r12" cx="0.5" cy="0.5" r="0.5" fx="0.35" fy="0.3"><stop offset="0" stop-color="#FF9A9A"/><stop offset="1" stop-color="#C0283A"/></radialGradient>
    <linearGradient id="l13" x1="0" y1="0" x2="0" y2="1"><stop offset="0" stop-color="#22224A"/><stop offset="1" stop-color="#12122A"/></linearGradient>
  </defs>
  <rect x="0" y="0" width="176" height="70" fill="url(#l1)"/>
  <path d="M0 3 L1.2 4.5 L0 6 L-1.2 4.5 Z" fill="#FFFFFF" fill-opacity="0.06"/>
  <path d="M10 3 L11.2 4.5 L10 6 L8.8 4.5 Z" fill="#FFFFFF" fill-opacity="0.06"/>
  <path d="M20 3 L21.2 4.5 L20 6 L18.8 4.5 Z" fill="#FFFFFF" fill-opacity="0.06"/>
  <path d="M30 3 L31.2 4.5 L30 6 L28.8 4.5 Z" fill="#FFFFFF" fill-opacity="0.06"/>
  <path d="M40 3 L41.2 4.5 L40 6 L38.8 4.5 Z" fill="#FFFFFF" fill-opacity="0.06"/>
  <path d="M50 3 L51.2 4.5 L50 6 L48.8 4.5 Z" fill="#FFFFFF" fill-opacity="0.06"/>
  <path d="M60 3 L61.2 4.5 L60 6 L58.8 4.5 Z" fill="#FFFFFF" fill-opacity="0.06"/>
  <path d="M70 3 L71.2 4.5 L70 6 L68.8 4.5 Z" fill="#FFFFFF" fill-opacity="0.06"/>
  <path d="M80 3 L81.2 4.5 L80 6 L78.8 4.5 Z" fill="#FFFFFF" fill-opacity="0.06"/>
  <path d="M90 3 L91.2 4.5 L90 6 L88.8 4.5 Z" fill="#FFFFFF" fill-opacity="0.06"/>
  <path d="M100 3 L101.2 4.5 L100 6 L98.8 4.5 Z" fill="#FFFFFF" fill-opacity="0.06"/>
  <path d="M110 3 L111.2 4.5 L110 6 L108.8 4.5 Z" fill="#FFFFFF" fill-opacity="0.06"/>
  <path d="M120 3 L121.2 4.5 L120 6 L118.8 4.5 Z" fill="#FFFFFF" fill-opacity="0.06"/>
  <path d="M130 3 L131.2 4.5 L130 6 L128.8 4.5 Z" fill="#FFFFFF" fill-opacity="0.06"/>
  <path d="M140 3 L141.2 4.5 L140 6 L138.8 4.5 Z" fill="#FFFFFF" fill-opacity="0.06"/>
  <path d="M150 3 L151.2 4.5 L150 6 L148.8 4.5 Z" fill="#FFFFFF" fill-opacity="0.06"/>
  <path d="M160 3 L161.2 4.5 L160 6 L158.8 4.5 Z" fill="#FFFFFF" fill-opacity="0.06"/>
  <path d="M170 3 L171.2 4.5 L170 6 L168.8 4.5 Z" fill="#FFFFFF" fill-opacity="0.06"/>
  <path d="M5 13 L6.2 14.5 L5 16 L3.8 14.5 Z" fill="#FFFFFF" fill-opacity="0.06"/>
  <path d="M15 13 L16.2 14.5 L15 16 L13.8 14.5 Z" fill="#FFFFFF" fill-opacity="0.06"/>
  <path d="M25 13 L26.2 14.5 L25 16 L23.8 14.5 Z" fill="#FFFFFF" fill-opacity="0.06"/>
  <path d="M35 13 L36.2 14.5 L35 16 L33.8 14.5 Z" fill="#FFFFFF" fill-opacity="0.06"/>
  <path d="M45 13 L46.2 14.5 L45 16 L43.8 14.5 Z" fill="#FFFFFF" fill-opacity="0.06"/>
  <path d="M55 13 L56.2 14.5 L55 16 L53.8 14.5 Z" fill="#FFFFFF" fill-opacity="0.06"/>
  <path d="M65 13 L66.2 14.5 L65 16 L63.8 14.5 Z" fill="#FFFFFF" fill-opacity="0.06"/>
  <path d="M75 13 L76.2 14.5 L75 16 L73.8 14.5 Z" fill="#FFFFFF" fill-opacity="0.06"/>
  <path d="M85 13 L86.2 14.5 L85 16 L83.8 14.5 Z" fill="#FFFFFF" fill-opacity="0.06"/>
  <path d="M95 13 L96.2 14.5 L95 16 L93.8 14.5 Z" fill="#FFFFFF" fill-opacity="0.06"/>
  <path d="M105 13 L106.2 14.5 L105 16 L103.8 14.5 Z" fill="#FFFFFF" fill-opacity="0.06"/>
  <path d="M115 13 L116.2 14.5 L115 16 L113.8 14.5 Z" fill="#FFFFFF" fill-opacity="0.06"/>
  <path d="M125 13 L126.2 14.5 L125 16 L123.8 14.5 Z" fill="#FFFFFF" fill-opacity="0.06"/>
  <path d="M135 13 L136.2 14.5 L135 16 L133.8 14.5 Z" fill="#FFFFFF" fill-opacity="0.06"/>
  <path d="M145 13 L146.2 14.5 L145 16 L143.8 14.5 Z" fill="#FFFFFF" fill-opacity="0.06"/>
  <path d="M155 13 L156.2 14.5 L155 16 L153.8 14.5 Z" fill="#FFFFFF" fill-opacity="0.06"/>
  <path d="M165 13 L166.2 14.5 L165 16 L163.8 14.5 Z" fill="#FFFFFF" fill-opacity="0.06"/>
  <path d="M175 13 L176.2 14.5 L175 16 L173.8 14.5 Z" fill="#FFFFFF" fill-opacity="0.06"/>
  <path d="M0 23 L1.2 24.5 L0 26 L-1.2 24.5 Z" fill="#FFFFFF" fill-opacity="0.06"/>
  <path d="M10 23 L11.2 24.5 L10 26 L8.8 24.5 Z" fill="#FFFFFF" fill-opacity="0.06"/>
  <path d="M20 23 L21.2 24.5 L20 26 L18.8 24.5 Z" fill="#FFFFFF" fill-opacity="0.06"/>
  <path d="M30 23 L31.2 24.5 L30 26 L28.8 24.5 Z" fill="#FFFFFF" fill-opacity="0.06"/>
  <path d="M40 23 L41.2 24.5 L40 26 L38.8 24.5 Z" fill="#FFFFFF" fill-opacity="0.06"/>
  <path d="M50 23 L51.2 24.5 L50 26 L48.8 24.5 Z" fill="#FFFFFF" fill-opacity="0.06"/>
  <path d="M60 23 L61.2 24.5 L60 26 L58.8 24.5 Z" fill="#FFFFFF" fill-opacity="0.06"/>
  <path d="M70 23 L71.2 24.5 L70 26 L68.8 24.5 Z" fill="#FFFFFF" fill-opacity="0.06"/>
  <path d="M80 23 L81.2 24.5 L80 26 L78.8 24.5 Z" fill="#FFFFFF" fill-opacity="0.06"/>
  <path d="M90 23 L91.2 24.5 L90 26 L88.8 24.5 Z" fill="#FFFFFF" fill-opacity="0.06"/>
  <path d="M100 23 L101.2 24.5 L100 26 L98.8 24.5 Z" fill="#FFFFFF" fill-opacity="0.06"/>
  <path d="M110 23 L111.2 24.5 L110 26 L108.8 24.5 Z" fill="#FFFFFF" fill-opacity="0.06"/>
  <path d="M120 23 L121.2 24.5 L120 26 L118.8 24.5 Z" fill="#FFFFFF" fill-opacity="0.06"/>
  <path d="M130 23 L131.2 24.5 L130 26 L128.8 24.5 Z" fill="#FFFFFF" fill-opacity="0.06"/>
  <path d="M140 23 L141.2 24.5 L140 26 L138.8 24.5 Z" fill="#FFFFFF" fill-opacity="0.06"/>
  <path d="M150 23 L151.2 24.5 L150 26 L148.8 24.5 Z" fill="#FFFFFF" fill-opacity="0.06"/>
  <path d="M160 23 L161.2 24.5 L160 26 L158.8 24.5 Z" fill="#FFFFFF" fill-opacity="0.06"/>
  <path d="M170 23 L171.2 24.5 L170 26 L168.8 24.5 Z" fill="#FFFFFF" fill-opacity="0.06"/>
  <path d="M5 33 L6.2 34.5 L5 36 L3.8 34.5 Z" fill="#FFFFFF" fill-opacity="0.06"/>
  <path d="M15 33 L16.2 34.5 L15 36 L13.8 34.5 Z" fill="#FFFFFF" fill-opacity="0.06"/>
  <path d="M25 33 L26.2 34.5 L25 36 L23.8 34.5 Z" fill="#FFFFFF" fill-opacity="0.06"/>
  <path d="M35 33 L36.2 34.5 L35 36 L33.8 34.5 Z" fill="#FFFFFF" fill-opacity="0.06"/>
  <path d="M45 33 L46.2 34.5 L45 36 L43.8 34.5 Z" fill="#FFFFFF" fill-opacity="0.06"/>
  <path d="M55 33 L56.2 34.5 L55 36 L53.8 34.5 Z" fill="#FFFFFF" fill-opacity="0.06"/>
  <path d="M65 33 L66.2 34.5 L65 36 L63.8 34.5 Z" fill="#FFFFFF" fill-opacity="0.06"/>
  <path d="M75 33 L76.2 34.5 L75 36 L73.8 34.5 Z" fill="#FFFFFF" fill-opacity="0.06"/>
  <path d="M85 33 L86.2 34.5 L85 36 L83.8 34.5 Z" fill="#FFFFFF" fill-opacity="0.06"/>
  <path d="M95 33 L96.2 34.5 L95 36 L93.8 34.5 Z" fill="#FFFFFF" fill-opacity="0.06"/>
  <path d="M105 33 L106.2 34.5 L105 36 L103.8 34.5 Z" fill="#FFFFFF" fill-opacity="0.06"/>
  <path d="M115 33 L116.2 34.5 L115 36 L113.8 34.5 Z" fill="#FFFFFF" fill-opacity="0.06"/>
  <path d="M125 33 L126.2 34.5 L125 36 L123.8 34.5 Z" fill="#FFFFFF" fill-opacity="0.06"/>
  <path d="M135 33 L136.2 34.5 L135 36 L133.8 34.5 Z" fill="#FFFFFF" fill-opacity="0.06"/>
  <path d="M145 33 L146.2 34.5 L145 36 L143.8 34.5 Z" fill="#FFFFFF" fill-opacity="0.06"/>
  <path d="M155 33 L156.2 34.5 L155 36 L153.8 34.5 Z" fill="#FFFFFF" fill-opacity="0.06"/>
  <path d="M165 33 L166.2 34.5 L165 36 L163.8 34.5 Z" fill="#FFFFFF" fill-opacity="0.06"/>
  <path d="M175 33 L176.2 34.5 L175 36 L173.8 34.5 Z" fill="#FFFFFF" fill-opacity="0.06"/>
  <path d="M0 43 L1.2 44.5 L0 46 L-1.2 44.5 Z" fill="#FFFFFF" fill-opacity="0.06"/>
  <path d="M10 43 L11.2 44.5 L10 46 L8.8 44.5 Z" fill="#FFFFFF" fill-opacity="0.06"/>
  <path d="M20 43 L21.2 44.5 L20 46 L18.8 44.5 Z" fill="#FFFFFF" fill-opacity="0.06"/>
  <path d="M30 43 L31.2 44.5 L30 46 L28.8 44.5 Z" fill="#FFFFFF" fill-opacity="0.06"/>
  <path d="M40 43 L41.2 44.5 L40 46 L38.8 44.5 Z" fill="#FFFFFF" fill-opacity="0.06"/>
  <path d="M50 43 L51.2 44.5 L50 46 L48.8 44.5 Z" fill="#FFFFFF" fill-opacity="0.06"/>
  <path d="M60 43 L61.2 44.5 L60 46 L58.8 44.5 Z" fill="#FFFFFF" fill-opacity="0.06"/>
  <path d="M70 43 L71.2 44.5 L70 46 L68.8 44.5 Z" fill="#FFFFFF" fill-opacity="0.06"/>
  <path d="M80 43 L81.2 44.5 L80 46 L78.8 44.5 Z" fill="#FFFFFF" fill-opacity="0.06"/>
  <path d="M90 43 L91.2 44.5 L90 46 L88.8 44.5 Z" fill="#FFFFFF" fill-opacity="0.06"/>
  <path d="M100 43 L101.2 44.5 L100 46 L98.8 44.5 Z" fill="#FFFFFF" fill-opacity="0.06"/>
  <path d="M110 43 L111.2 44.5 L110 46 L108.8 44.5 Z" fill="#FFFFFF" fill-opacity="0.06"/>
  <path d="M120 43 L121.2 44.5 L120 46 L118.8 44.5 Z" fill="#FFFFFF" fill-opacity="0.06"/>
  <path d="M130 43 L131.2 44.5 L130 46 L128.8 44.5 Z" fill="#FFFFFF" fill-opacity="0.06"/>
  <path d="M140 43 L141.2 44.5 L140 46 L138.8 44.5 Z" fill="#FFFFFF" fill-opacity="0.06"/>
  <path d="M150 43 L151.2 44.5 L150 46 L148.8 44.5 Z" fill="#FFFFFF" fill-opacity="0.06"/>
  <path d="M160 43 L161.2 44.5 L160 46 L158.8 44.5 Z" fill="#FFFFFF" fill-opacity="0.06"/>
  <path d="M170 43 L171.2 44.5 L170 46 L168.8 44.5 Z" fill="#FFFFFF" fill-opacity="0.06"/>
  <path d="M5 53 L6.2 54.5 L5 56 L3.8 54.5 Z" fill="#FFFFFF" fill-opacity="0.06"/>
  <path d="M15 53 L16.2 54.5 L15 56 L13.8 54.5 Z" fill="#FFFFFF" fill-opacity="0.06"/>
  <path d="M25 53 L26.2 54.5 L25 56 L23.8 54.5 Z" fill="#FFFFFF" fill-opacity="0.06"/>
  <path d="M35 53 L36.2 54.5 L35 56 L33.8 54.5 Z" fill="#FFFFFF" fill-opacity="0.06"/>
  <path d="M45 53 L46.2 54.5 L45 56 L43.8 54.5 Z" fill="#FFFFFF" fill-opacity="0.06"/>
  <path d="M55 53 L56.2 54.5 L55 56 L53.8 54.5 Z" fill="#FFFFFF" fill-opacity="0.06"/>
  <path d="M65 53 L66.2 54.5 L65 56 L63.8 54.5 Z" fill="#FFFFFF" fill-opacity="0.06"/>
  <path d="M75 53 L76.2 54.5 L75 56 L73.8 54.5 Z" fill="#FFFFFF" fill-opacity="0.06"/>
  <path d="M85 53 L86.2 54.5 L85 56 L83.8 54.5 Z" fill="#FFFFFF" fill-opacity="0.06"/>
  <path d="M95 53 L96.2 54.5 L95 56 L93.8 54.5 Z" fill="#FFFFFF" fill-opacity="0.06"/>
  <path d="M105 53 L106.2 54.5 L105 56 L103.8 54.5 Z" fill="#FFFFFF" fill-opacity="0.06"/>
  <path d="M115 53 L116.2 54.5 L115 56 L113.8 54.5 Z" fill="#FFFFFF" fill-opacity="0.06"/>
  <path d="M125 53 L126.2 54.5 L125 56 L123.8 54.5 Z" fill="#FFFFFF" fill-opacity="0.06"/>
  <path d="M135 53 L136.2 54.5 L135 56 L133.8 54.5 Z" fill="#FFFFFF" fill-opacity="0.06"/>
  <path d="M145 53 L146.2 54.5 L145 56 L143.8 54.5 Z" fill="#FFFFFF" fill-opacity="0.06"/>
  <path d="M155 53 L156.2 54.5 L155 56 L153.8 54.5 Z" fill="#FFFFFF" fill-opacity="0.06"/>
  <path d="M165 53 L166.2 54.5 L165 56 L163.8 54.5 Z" fill="#FFFFFF" fill-opacity="0.06"/>
  <path d="M175 53 L176.2 54.5 L175 56 L173.8 54.5 Z" fill="#FFFFFF" fill-opacity="0.06"/>
  <path d="M0 63 L1.2 64.5 L0 66 L-1.2 64.5 Z" fill="#FFFFFF" fill-opacity="0.06"/>
  <path d="M10 63 L11.2 64.5 L10 66 L8.8 64.5 Z" fill="#FFFFFF" fill-opacity="0.06"/>
  <path d="M20 63 L21.2 64.5 L20 66 L18.8 64.5 Z" fill="#FFFFFF" fill-opacity="0.06"/>
  <path d="M30 63 L31.2 64.5 L30 66 L28.8 64.5 Z" fill="#FFFFFF" fill-opacity="0.06"/>
  <path d="M40 63 L41.2 64.5 L40 66 L38.8 64.5 Z" fill="#FFFFFF" fill-opacity="0.06"/>
  <path d="M50 63 L51.2 64.5 L50 66 L48.8 64.5 Z" fill="#FFFFFF" fill-opacity="0.06"/>
  <path d="M60 63 L61.2 64.5 L60 66 L58.8 64.5 Z" fill="#FFFFFF" fill-opacity="0.06"/>
  <path d="M70 63 L71.2 64.5 L70 66 L68.8 64.5 Z" fill="#FFFFFF" fill-opacity="0.06"/>
  <path d="M80 63 L81.2 64.5 L80 66 L78.8 64.5 Z" fill="#FFFFFF" fill-opacity="0.06"/>
  <path d="M90 63 L91.2 64.5 L90 66 L88.8 64.5 Z" fill="#FFFFFF" fill-opacity="0.06"/>
  <path d="M100 63 L101.2 64.5 L100 66 L98.8 64.5 Z" fill="#FFFFFF" fill-opacity="0.06"/>
  <path d="M110 63 L111.2 64.5 L110 66 L108.8 64.5 Z" fill="#FFFFFF" fill-opacity="0.06"/>
  <path d="M120 63 L121.2 64.5 L120 66 L118.8 64.5 Z" fill="#FFFFFF" fill-opacity="0.06"/>
  <path d="M130 63 L131.2 64.5 L130 66 L128.8 64.5 Z" fill="#FFFFFF" fill-opacity="0.06"/>
  <path d="M140 63 L141.2 64.5 L140 66 L138.8 64.5 Z" fill="#FFFFFF" fill-opacity="0.06"/>
  <path d="M150 63 L151.2 64.5 L150 66 L148.8 64.5 Z" fill="#FFFFFF" fill-opacity="0.06"/>
  <path d="M160 63 L161.2 64.5 L160 66 L158.8 64.5 Z" fill="#FFFFFF" fill-opacity="0.06"/>
  <path d="M170 63 L171.2 64.5 L170 66 L168.8 64.5 Z" fill="#FFFFFF" fill-opacity="0.06"/>
  <rect x="0" y="68" width="176" height="24" fill="url(#l2)"/>
  <ellipse cx="92" cy="84" rx="50" ry="6" fill="url(#r3)"/>
  <rect x="8" y="22" width="44" height="3" rx="0.6" fill="#7A5234"/>
  <rect x="10" y="12" width="3.2" height="10" rx="0.4" fill="#C84A3A"/>
  <rect x="14" y="9" width="3.2" height="13" rx="0.4" fill="#3A7AC8"/>
  <rect x="18" y="11" width="3.2" height="11" rx="0.4" fill="#E0B040"/>
  <rect x="22" y="8" width="3.2" height="14" rx="0.4" fill="#3AA868"/>
  <rect x="26" y="10" width="3.2" height="12" rx="0.4" fill="#8A4AA8"/>
  <rect x="30" y="12" width="3.2" height="10" rx="0.4" fill="#C84A3A"/>
  <rect x="34" y="9" width="3.2" height="13" rx="0.4" fill="#3A7AC8"/>
  <rect x="38" y="11" width="3.2" height="11" rx="0.4" fill="#E0B040"/>
  <path d="M42 16 L49 16 L48 22 L43 22 Z" fill="#B06A3A"/>
  <circle cx="45.5" cy="13" r="4" fill="url(#r4)"/>
  <path d="M20 50 L24 36 L28 36 L32 50 Z" fill="url(#l5)"/>
  <rect x="19" y="50" width="14" height="4" rx="1" fill="#2A2A30"/>
  <rect x="22" y="33" width="8" height="3" rx="1" fill="#2A2A30"/>
  <rect x="40" y="60" width="108" height="5" rx="1" fill="url(#l6)"/>
  <rect x="44" y="65" width="4" height="13" rx="0.6" fill="#6A4424"/>
  <rect x="140" y="65" width="4" height="13" rx="0.6" fill="#6A4424"/>
  <ellipse cx="91" cy="60" rx="32" ry="1.8" fill="#000000" fill-opacity="0.3"/>
  <rect x="60" y="15" width="62" height="45" rx="3" fill="url(#l7)"/>
  <rect x="65" y="19" width="46" height="36" rx="3" fill="#2A2A30"/>
  <rect x="68" y="22" width="40" height="30" rx="2.4" fill="url(#r8)"/>
  <path d="M113 24 L119 24" fill="none" stroke="#8A826E" stroke-width="0.7" stroke-linecap="round"/>
  <path d="M113 26 L119 26" fill="none" stroke="#8A826E" stroke-width="0.7" stroke-linecap="round"/>
  <path d="M113 28 L119 28" fill="none" stroke="#8A826E" stroke-width="0.7" stroke-linecap="round"/>
  <circle cx="116" cy="36" r="2" fill="url(#r9)"/>
  <circle cx="116" cy="43" r="2" fill="url(#r10)"/>
  <circle cx="116" cy="49" r="0.9" fill="#4FD86A"/>
  <rect x="122" y="55" width="14" height="5" rx="1.4" fill="url(#l11)"/>
  <path d="M128.5 55 L128.5 47" fill="none" stroke="#9A9AA4" stroke-width="0.9" stroke-linecap="round"/>
  <circle cx="128.5" cy="46" r="2.4" fill="url(#r12)"/>
  <circle cx="133.5" cy="57" r="0.8" fill="#FFD34F"/>
  <path d="M122 58 Q118 60 114 59" fill="none" stroke="#1E1E24" stroke-width="0.7" stroke-linecap="round" stroke-linejoin="round"/>
  <rect x="152" y="12" width="18" height="24" rx="0.6" fill="url(#l13)"/>
  <rect x="152" y="12" width="18" height="1" fill="#E0B040"/>
  <circle cx="156" cy="18" r="0.5" fill="#FFF4C8"/>
  <circle cx="164" cy="16" r="0.5" fill="#FFF4C8"/>
  <circle cx="160" cy="24" r="0.5" fill="#FFF4C8"/>
  <circle cx="166" cy="30" r="0.5" fill="#FFF4C8"/>
  <circle cx="155" cy="30" r="0.5" fill="#FFF4C8"/>
</svg>
