<svg xmlns="http://www.w3.org/2000/svg" width="128" height="128" viewBox="0 0 32 32" role="img" aria-label="phone icon">
  <!-- Generated by tools/classicart — do not edit by hand. Bear Den UI icon "phone", Classic: tools/classicart/uiicons.py -->
  <defs>
    <linearGradient id="l1" x1="0" y1="0" x2="0" y2="1"><stop offset="0" stop-color="#5070B0"/><stop offset="1" stop-color="#1C2A56"/></linearGradient>
    <linearGradient id="l2" x1="0" y1="0" x2="0" y2="1"><stop offset="0" stop-color="#FFFFFF" stop-opacity="0.28"/><stop offset="1" stop-color="#FFFFFF" stop-opacity="0"/></linearGradient>
    <linearGradient id="l3" x1="0" y1="0" x2="0" y2="1"><stop offset="0" stop-color="#2E4058"/><stop offset="1" stop-color="#1A2434"/></linearGradient>
    <radialGradient id="r4" cx="0.5" cy="0.5" r="0.5" fx="0.35" fy="0.3"><stop offset="0" stop-color="#E0AA70"/><stop offset="1" stop-color="#B8804A"/></radialGradient>
    <linearGradient id="l5" x1="0" y1="0" x2="1" y2="1"><stop offset="0" stop-color="#FFFAEC"/><stop offset="0.55" stop-color="#F6EAD0"/><stop offset="1" stop-color="#D8C6A2"/></linearGradient>
    <linearGradient id="l6" x1="0" y1="0" x2="0" y2="1"><stop offset="0" stop-color="#2E4058"/><stop offset="1" stop-color="#1A2434"/></linearGradient>
    <radialGradient id="r7" cx="0.5" cy="0.5" r="0.5" fx="0.35" fy="0.3"><stop offset="0" stop-color="#E0AA70"/><stop offset="1" stop-color="#B8804A"/></radialGradient>
  </defs>
  <circle cx="7.5" cy="4.9" r="3.9" fill="#120E0C"/>
  <circle cx="7.5" cy="4.9" r="3.1" fill="#293C6C"/>
  <circle cx="7.5" cy="4.6" r="1.5" fill="#8DA2CC"/>
  <circle cx="24.5" cy="4.9" r="3.9" fill="#120E0C"/>
  <circle cx="24.5" cy="4.9" r="3.1" fill="#293C6C"/>
  <circle cx="24.5" cy="4.6" r="1.5" fill="#8DA2CC"/>
  <rect x="1.6" y="4.6" width="28.8" height="26.8" rx="5.4" fill="#120E0C"/>
  <rect x="2.4" y="5.4" width="27.2" height="25.2" rx="4.8" fill="url(#l1)"/>
  <rect x="4.5" y="6.2" width="23" height="3" rx="1.5" fill="url(#l2)"/>
  <g transform="translate(0.8 0.8)">
  <rect x="10" y="7" width="12" height="22" rx="2.2" fill="#293C6C"/>
  <rect x="14" y="8.2" width="4" height="0.9" rx="0.45" fill="#293C6C"/>
  <rect x="12" y="10" width="8" height="14" rx="0.8" fill="#293C6C"/>
  <circle cx="13.9" cy="14" r="1.3" fill="#293C6C"/>
  <circle cx="19.1" cy="14" r="1.3" fill="#293C6C"/>
  <circle cx="16.5" cy="17.3" r="3.3" fill="#293C6C"/>
  <ellipse cx="16.5" cy="18.7" rx="1.7" ry="1.2" fill="#293C6C"/>
  <circle cx="15" cy="16.6" r="0.5" fill="#293C6C"/>
  <circle cx="18" cy="16.6" r="0.5" fill="#293C6C"/>
  <ellipse cx="16.5" cy="18.2" rx="0.6" ry="0.45" fill="#293C6C"/>
  <rect x="14" y="26" width="4" height="1" rx="0.5" fill="#293C6C"/>
  </g>
  <rect x="10" y="7" width="12" height="22" rx="2.2" fill="url(#l5)"/>
  <rect x="14" y="8.2" width="4" height="0.9" rx="0.45" fill="#D8C6A2"/>
  <rect x="12" y="10" width="8" height="14" rx="0.8" fill="url(#l6)"/>
  <circle cx="13.9" cy="14" r="1.3" fill="#8A5A30"/>
  <circle cx="19.1" cy="14" r="1.3" fill="#8A5A30"/>
  <circle cx="16.5" cy="17.3" r="3.3" fill="url(#r7)"/>
  <ellipse cx="16.5" cy="18.7" rx="1.7" ry="1.2" fill="#F0D0A0"/>
  <circle cx="15" cy="16.6" r="0.5" fill="#1A1210"/>
  <circle cx="18" cy="16.6" r="0.5" fill="#1A1210"/>
  <ellipse cx="16.5" cy="18.2" rx="0.6" ry="0.45" fill="#1A1210"/>
  <rect x="14" y="26" width="4" height="1" rx="0.5" fill="#D8C6A2"/>
</svg>
