<svg xmlns="http://www.w3.org/2000/svg" width="128" height="128" viewBox="0 0 32 32" role="img" aria-label="themes icon">
  <!-- Generated by tools/classicart — do not edit by hand. Bear Den UI icon "themes", Classic: tools/classicart/uiicons.py -->
  <defs>
    <linearGradient id="l1" x1="0" y1="0" x2="0" y2="1"><stop offset="0" stop-color="#9C4E8C"/><stop offset="1" stop-color="#461840"/></linearGradient>
    <linearGradient id="l2" x1="0" y1="0" x2="0" y2="1"><stop offset="0" stop-color="#FFFFFF" stop-opacity="0.28"/><stop offset="1" stop-color="#FFFFFF" stop-opacity="0"/></linearGradient>
    <linearGradient id="l3" x1="0" y1="0" x2="1" y2="1"><stop offset="0" stop-color="#FFFAEC"/><stop offset="0.55" stop-color="#F6EAD0"/><stop offset="1" stop-color="#D8C6A2"/></linearGradient>
  </defs>
  <circle cx="7.5" cy="4.9" r="3.9" fill="#120E0C"/>
  <circle cx="7.5" cy="4.9" r="3.1" fill="#5C2653"/>
  <circle cx="7.5" cy="4.6" r="1.5" fill="#BF8CB4"/>
  <circle cx="24.5" cy="4.9" r="3.9" fill="#120E0C"/>
  <circle cx="24.5" cy="4.9" r="3.1" fill="#5C2653"/>
  <circle cx="24.5" cy="4.6" r="1.5" fill="#BF8CB4"/>
  <rect x="1.6" y="4.6" width="28.8" height="26.8" rx="5.4" fill="#120E0C"/>
  <rect x="2.4" y="5.4" width="27.2" height="25.2" rx="4.8" fill="url(#l1)"/>
  <rect x="4.5" y="6.2" width="23" height="3" rx="1.5" fill="url(#l2)"/>
  <g transform="translate(0.8 0.8)">
  <path d="M24.2 19.5 L24.06 20.75 L23.65 21.96 L22.97 23.1 L22.05 24.13 L20.91 25.02 L19.6 25.74 L18.15 26.27 L16.6 26.59 L15 26.7 L13.4 26.59 L11.85 26.27 L10.4 25.74 L9.09 25.02 L7.95 24.13 L7.03 23.1 L6.35 21.96 L5.94 20.75 L5.8 19.5 L5.94 18.25 L6.35 17.04 L7.03 15.9 L7.95 14.87 L9.09 13.98 L10.4 13.26 L11.85 12.73 L13.4 12.41 L15 12.3 L16.6 12.41 L18.15 12.73 L19.6 13.26 L20.91 13.98 L22.05 14.87 L22.97 15.9 L23.65 17.04 L24.06 18.25 Z M11.8 23.2 L11.69 23.77 L11.36 24.26 L10.87 24.59 L10.3 24.7 L9.73 24.59 L9.24 24.26 L8.91 23.77 L8.8 23.2 L8.91 22.63 L9.24 22.14 L9.73 21.81 L10.3 21.7 L10.87 21.81 L11.36 22.14 L11.69 22.63 Z" fill="#5C2653" fill-rule="evenodd"/>
  <circle cx="9.5" cy="16.5" r="1.6" fill="#5C2653"/>
  <circle cx="13.5" cy="13.5" r="1.6" fill="#5C2653"/>
  <circle cx="18.5" cy="13.5" r="1.6" fill="#5C2653"/>
  <circle cx="20.5" cy="18.5" r="1.6" fill="#5C2653"/>
  <path d="M26.6 7.4 L20.6 15.4" fill="none" stroke="#5C2653" stroke-width="2.2" stroke-linecap="round"/>
  <path d="M26.2 7.2 L20.4 14.8" fill="none" stroke="#5C2653" stroke-width="0.7" stroke-linecap="round"/>
  <path d="M19.4 15.2 L21.6 17 L19.6 19.4 L17.4 17.6 Z" fill="#5C2653"/>
  <path d="M17.2 17.8 L19.4 19.6 Q17 22.6 13.4 23.4 Q14.2 20.2 17.2 17.8 Z" fill="#5C2653"/>
  </g>
  <path d="M24.2 19.5 L24.06 20.75 L23.65 21.96 L22.97 23.1 L22.05 24.13 L20.91 25.02 L19.6 25.74 L18.15 26.27 L16.6 26.59 L15 26.7 L13.4 26.59 L11.85 26.27 L10.4 25.74 L9.09 25.02 L7.95 24.13 L7.03 23.1 L6.35 21.96 L5.94 20.75 L5.8 19.5 L5.94 18.25 L6.35 17.04 L7.03 15.9 L7.95 14.87 L9.09 13.98 L10.4 13.26 L11.85 12.73 L13.4 12.41 L15 12.3 L16.6 12.41 L18.15 12.73 L19.6 13.26 L20.91 13.98 L22.05 14.87 L22.97 15.9 L23.65 17.04 L24.06 18.25 Z M11.8 23.2 L11.69 23.77 L11.36 24.26 L10.87 24.59 L10.3 24.7 L9.73 24.59 L9.24 24.26 L8.91 23.77 L8.8 23.2 L8.91 22.63 L9.24 22.14 L9.73 21.81 L10.3 21.7 L10.87 21.81 L11.36 22.14 L11.69 22.63 Z" fill="url(#l3)" fill-rule="evenodd"/>
  <circle cx="9.5" cy="16.5" r="1.6" fill="#D8404A"/>
  <circle cx="13.5" cy="13.5" r="1.6" fill="#F2C14E"/>
  <circle cx="18.5" cy="13.5" r="1.6" fill="#4A8AD8"/>
  <circle cx="20.5" cy="18.5" r="1.6" fill="#5AB85A"/>
  <path d="M26.6 7.4 L20.6 15.4" fill="none" stroke="#8A5A34" stroke-width="2.2" stroke-linecap="round"/>
  <path d="M26.2 7.2 L20.4 14.8" fill="none" stroke="#B8844E" stroke-width="0.7" stroke-linecap="round"/>
  <path d="M19.4 15.2 L21.6 17 L19.6 19.4 L17.4 17.6 Z" fill="#C9C9D0"/>
  <path d="M17.2 17.8 L19.4 19.6 Q17 22.6 13.4 23.4 Q14.2 20.2 17.2 17.8 Z" fill="#8A2E7A"/>
</svg>
