<svg xmlns="http://www.w3.org/2000/svg" width="128" height="128" viewBox="0 0 32 32" role="img" aria-label="home icon">
  <!-- Generated by tools/classicart — do not edit by hand. Bear Den UI icon "home", Classic: tools/classicart/uiicons.py -->
  <defs>
    <linearGradient id="l1" x1="0" y1="0" x2="0" y2="1"><stop offset="0" stop-color="#5A9A40"/><stop offset="1" stop-color="#1E4414"/></linearGradient>
    <linearGradient id="l2" x1="0" y1="0" x2="0" y2="1"><stop offset="0" stop-color="#FFFFFF" stop-opacity="0.28"/><stop offset="1" stop-color="#FFFFFF" stop-opacity="0"/></linearGradient>
    <linearGradient id="l3" x1="0" y1="0" x2="0" y2="1"><stop offset="0" stop-color="#FFF0A8"/><stop offset="1" stop-color="#FFC83A"/></linearGradient>
    <linearGradient id="l4" x1="0" y1="0" x2="1" y2="1"><stop offset="0" stop-color="#FFFAEC"/><stop offset="0.55" stop-color="#F6EAD0"/><stop offset="1" stop-color="#D8C6A2"/></linearGradient>
    <linearGradient id="l5" x1="0" y1="0" x2="0" y2="1"><stop offset="0" stop-color="#FFF0A8"/><stop offset="1" stop-color="#FFC83A"/></linearGradient>
  </defs>
  <circle cx="7.5" cy="4.9" r="3.9" fill="#120E0C"/>
  <circle cx="7.5" cy="4.9" r="3.1" fill="#2D5A1F"/>
  <circle cx="7.5" cy="4.6" r="1.5" fill="#94BD83"/>
  <circle cx="24.5" cy="4.9" r="3.9" fill="#120E0C"/>
  <circle cx="24.5" cy="4.9" r="3.1" fill="#2D5A1F"/>
  <circle cx="24.5" cy="4.6" r="1.5" fill="#94BD83"/>
  <rect x="1.6" y="4.6" width="28.8" height="26.8" rx="5.4" fill="#120E0C"/>
  <rect x="2.4" y="5.4" width="27.2" height="25.2" rx="4.8" fill="url(#l1)"/>
  <rect x="4.5" y="6.2" width="23" height="3" rx="1.5" fill="url(#l2)"/>
  <g transform="translate(0.8 0.8)">
  <rect x="20" y="7" width="3" height="7" fill="#2D5A1F"/>
  <rect x="19.6" y="6.6" width="3.8" height="1.2" rx="0.4" fill="#2D5A1F"/>
  <rect x="7" y="15.5" width="18" height="12.5" rx="0.6" fill="#2D5A1F"/>
  <rect x="7" y="18.15" width="18" height="0.7" fill="#2D5A1F"/>
  <rect x="7" y="21.15" width="18" height="0.7" fill="#2D5A1F"/>
  <rect x="7" y="24.15" width="18" height="0.7" fill="#2D5A1F"/>
  <path d="M3.4 17.6 L16.5 6.8 L29.6 17.6 Q29.8 18.4 29 18.4 L4 18.4 Q3.2 18.4 3.4 17.6 Z" fill="#2D5A1F"/>
  <path d="M6.4 17.6 L16.5 9.4 L26.6 17.6 Z" fill="#2D5A1F"/>
  <path d="M4.6 16.8 L15.8 7.6" fill="none" stroke="#2D5A1F" stroke-width="0.8" stroke-linecap="round"/>
  <rect x="9" y="20" width="5" height="4" rx="0.4" fill="#2D5A1F"/>
  <rect x="11.2" y="20" width="0.6" height="4" fill="#2D5A1F"/>
  <path d="M17 28 L17 21.6 Q19.5 19.4 22 21.6 L22 28 Z" fill="#2D5A1F"/>
  <circle cx="20.6" cy="24.6" r="0.55" fill="#2D5A1F"/>
  </g>
  <rect x="20" y="7" width="3" height="7" fill="#8A7A6A"/>
  <rect x="19.6" y="6.6" width="3.8" height="1.2" rx="0.4" fill="#B0A090"/>
  <rect x="7" y="15.5" width="18" height="12.5" rx="0.6" fill="url(#l4)"/>
  <rect x="7" y="18.15" width="18" height="0.7" fill="#D8C6A2"/>
  <rect x="7" y="21.15" width="18" height="0.7" fill="#D8C6A2"/>
  <rect x="7" y="24.15" width="18" height="0.7" fill="#D8C6A2"/>
  <path d="M3.4 17.6 L16.5 6.8 L29.6 17.6 Q29.8 18.4 29 18.4 L4 18.4 Q3.2 18.4 3.4 17.6 Z" fill="#6A3A1E"/>
  <path d="M6.4 17.6 L16.5 9.4 L26.6 17.6 Z" fill="#4A2410"/>
  <path d="M4.6 16.8 L15.8 7.6" fill="none" stroke="#9A5A30" stroke-width="0.8" stroke-linecap="round"/>
  <rect x="9" y="20" width="5" height="4" rx="0.4" fill="url(#l5)"/>
  <rect x="11.2" y="20" width="0.6" height="4" fill="#4A2410"/>
  <path d="M17 28 L17 21.6 Q19.5 19.4 22 21.6 L22 28 Z" fill="#4A2410"/>
  <circle cx="20.6" cy="24.6" r="0.55" fill="#F2C14E"/>
</svg>
