<svg xmlns="http://www.w3.org/2000/svg" width="128" height="128" viewBox="0 0 32 32" role="img" aria-label="globe icon">
  <!-- Generated by tools/classicart — do not edit by hand. Bear Den UI icon "globe", Classic: tools/classicart/uiicons.py -->
  <defs>
    <linearGradient id="l1" x1="0" y1="0" x2="0" y2="1"><stop offset="0" stop-color="#A0603A"/><stop offset="1" stop-color="#4A2412"/></linearGradient>
    <linearGradient id="l2" x1="0" y1="0" x2="0" y2="1"><stop offset="0" stop-color="#FFFFFF" stop-opacity="0.28"/><stop offset="1" stop-color="#FFFFFF" stop-opacity="0"/></linearGradient>
    <linearGradient id="l3" x1="0" y1="0" x2="1" y2="1"><stop offset="0" stop-color="#FFFAEC"/><stop offset="0.55" stop-color="#F6EAD0"/><stop offset="1" stop-color="#D8C6A2"/></linearGradient>
  </defs>
  <circle cx="7.5" cy="4.9" r="3.9" fill="#120E0C"/>
  <circle cx="7.5" cy="4.9" r="3.1" fill="#60331C"/>
  <circle cx="7.5" cy="4.6" r="1.5" fill="#C1987F"/>
  <circle cx="24.5" cy="4.9" r="3.9" fill="#120E0C"/>
  <circle cx="24.5" cy="4.9" r="3.1" fill="#60331C"/>
  <circle cx="24.5" cy="4.6" r="1.5" fill="#C1987F"/>
  <rect x="1.6" y="4.6" width="28.8" height="26.8" rx="5.4" fill="#120E0C"/>
  <rect x="2.4" y="5.4" width="27.2" height="25.2" rx="4.8" fill="url(#l1)"/>
  <rect x="4.5" y="6.2" width="23" height="3" rx="1.5" fill="url(#l2)"/>
  <g transform="translate(0.8 0.8)">
  <circle cx="16.5" cy="18.5" r="9.8" fill="#60331C"/>
  <path d="M16.5 8.7 L16.5 28.3" fill="none" stroke="#60331C" stroke-width="1" stroke-linecap="round"/>
  <path d="M6.7 18.5 L26.3 18.5" fill="none" stroke="#60331C" stroke-width="1" stroke-linecap="round"/>
  <ellipse cx="16.5" cy="18.5" rx="4.8" ry="9.8" fill="none" stroke="#60331C" stroke-width="1" stroke-linecap="round" stroke-linejoin="round"/>
  <path d="M8.3 14.2 Q16.5 11.8 24.7 14.2" fill="none" stroke="#60331C" stroke-width="1" stroke-linecap="round" stroke-linejoin="round"/>
  <path d="M8.3 22.8 Q16.5 25.2 24.7 22.8" fill="none" stroke="#60331C" stroke-width="1" stroke-linecap="round" stroke-linejoin="round"/>
  <circle cx="16.5" cy="18.5" r="9.8" fill="none" stroke="#60331C" stroke-width="0.6" stroke-linecap="round" stroke-linejoin="round"/>
  </g>
  <circle cx="16.5" cy="18.5" r="9.8" fill="url(#l3)"/>
  <path d="M16.5 8.7 L16.5 28.3" fill="none" stroke="#402012" stroke-width="1" stroke-linecap="round"/>
  <path d="M6.7 18.5 L26.3 18.5" fill="none" stroke="#402012" stroke-width="1" stroke-linecap="round"/>
  <ellipse cx="16.5" cy="18.5" rx="4.8" ry="9.8" fill="none" stroke="#402012" stroke-width="1" stroke-linecap="round" stroke-linejoin="round"/>
  <path d="M8.3 14.2 Q16.5 11.8 24.7 14.2" fill="none" stroke="#402012" stroke-width="1" stroke-linecap="round" stroke-linejoin="round"/>
  <path d="M8.3 22.8 Q16.5 25.2 24.7 22.8" fill="none" stroke="#402012" stroke-width="1" stroke-linecap="round" stroke-linejoin="round"/>
  <circle cx="16.5" cy="18.5" r="9.8" fill="none" stroke="#402012" stroke-width="0.6" stroke-linecap="round" stroke-linejoin="round"/>
</svg>
