<svg xmlns="http://www.w3.org/2000/svg" width="104" height="44" viewBox="0 0 104 44" role="img" aria-label="leaf">
  <!-- Generated by tools/classicart — do not edit by hand. Leaf umbrella for a bear in the rain, Classic: tools/classicart/extras.py -->
  <defs>
    <linearGradient id="l1" x1="0" y1="0" x2="0" y2="1"><stop offset="0" stop-color="#8CC46E"/><stop offset="0.6" stop-color="#6FA35A"/><stop offset="1" stop-color="#4E7A3E"/></linearGradient>
  </defs>
  <path d="M4 40 Q6 4 52 2 Q98 4 100 40 L96 40 Q102 38 84 40 Q90 44 72 40 Q78 38 60 40 Q66 44 48 40 Q54 38 36 40 Q42 44 24 40 Q30 38 12 40 Z" fill="url(#l1)" stroke="#2F4A24" stroke-width="2.2" stroke-linecap="round" stroke-linejoin="round"/>
  <path d="M52 3 L52 40" fill="none" stroke="#C4E09A" stroke-width="2" stroke-linecap="round" stroke-linejoin="round"/>
  <path d="M52 18 Q37.0 26 22 34" fill="none" stroke="#A6D07E" stroke-width="1.4" stroke-linecap="round" stroke-linejoin="round"/>
  <path d="M52 12 Q41.0 14 30 22" fill="none" stroke="#A6D07E" stroke-width="1.4" stroke-linecap="round" stroke-linejoin="round"/>
  <path d="M52 18 Q67.0 26 82 34" fill="none" stroke="#A6D07E" stroke-width="1.4" stroke-linecap="round" stroke-linejoin="round"/>
  <path d="M52 12 Q63.0 14 74 22" fill="none" stroke="#A6D07E" stroke-width="1.4" stroke-linecap="round" stroke-linejoin="round"/>
</svg>
