<svg xmlns="http://www.w3.org/2000/svg" width="64" height="64" viewBox="0 0 64 64" role="img" aria-label="weather: rain">
  <!-- Generated by tools/classicart — do not edit by hand. Weather icon "rain", Classic: tools/classicart/weather.py -->
  <defs>
    <linearGradient id="l1" gradientUnits="userSpaceOnUse" x1="0" y1="3.5" x2="0" y2="36"><stop offset="0" stop-color="#9AA3B5"/><stop offset="1" stop-color="#586277"/></linearGradient>
    <linearGradient id="l2" x1="0" y1="0" x2="0" y2="1"><stop offset="0" stop-color="#A8D0FF"/><stop offset="1" stop-color="#4A7FC4"/></linearGradient>
    <linearGradient id="l3" x1="0" y1="0" x2="0" y2="1"><stop offset="0" stop-color="#A8D0FF"/><stop offset="1" stop-color="#4A7FC4"/></linearGradient>
    <linearGradient id="l4" x1="0" y1="0" x2="0" y2="1"><stop offset="0" stop-color="#A8D0FF"/><stop offset="1" stop-color="#4A7FC4"/></linearGradient>
    <linearGradient id="l5" x1="0" y1="0" x2="0" y2="1"><stop offset="0" stop-color="#A8D0FF"/><stop offset="1" stop-color="#4A7FC4"/></linearGradient>
  </defs>
  <circle cx="20.3" cy="25.6" r="10.4" fill="#17130F" stroke="#17130F" stroke-width="6.4" stroke-linecap="round" stroke-linejoin="round" stroke-opacity="0.6" fill-opacity="0.6"/>
  <circle cx="34.6" cy="17.8" r="14.3" fill="#17130F" stroke="#17130F" stroke-width="6.4" stroke-linecap="round" stroke-linejoin="round" stroke-opacity="0.6" fill-opacity="0.6"/>
  <circle cx="48.9" cy="24.3" r="11.05" fill="#17130F" stroke="#17130F" stroke-width="6.4" stroke-linecap="round" stroke-linejoin="round" stroke-opacity="0.6" fill-opacity="0.6"/>
  <rect x="9.9" y="21.7" width="49.4" height="14.3" rx="7.15" fill="#17130F" stroke="#17130F" stroke-width="6.4" stroke-linecap="round" stroke-linejoin="round" stroke-opacity="0.6" fill-opacity="0.6"/>
  <circle cx="20.3" cy="25.6" r="10.4" fill="url(#l1)"/>
  <circle cx="34.6" cy="17.8" r="14.3" fill="url(#l1)"/>
  <circle cx="48.9" cy="24.3" r="11.05" fill="url(#l1)"/>
  <rect x="9.9" y="21.7" width="49.4" height="14.3" rx="7.15" fill="url(#l1)"/>
  <ellipse cx="30.7" cy="11.3" rx="6.5" ry="3.9" fill="#FFFFFF" fill-opacity="0.45"/>
  <path d="M14 40 Q17.4 49.92 16.2 52.8 A3 3 0 0 1 10.8 50.56 Q12 44.8 14 40 Z" fill="none" stroke="#17130F" stroke-width="3.2" stroke-linecap="round" stroke-linejoin="round" stroke-opacity="0.55"/>
  <path d="M14 40 Q17.4 49.92 16.2 52.8 A3 3 0 0 1 10.8 50.56 Q12 44.8 14 40 Z" fill="url(#l2)"/>
  <path d="M25 48 Q28.4 57.92 27.2 60.8 A3 3 0 0 1 21.8 58.56 Q23 52.8 25 48 Z" fill="none" stroke="#17130F" stroke-width="3.2" stroke-linecap="round" stroke-linejoin="round" stroke-opacity="0.55"/>
  <path d="M25 48 Q28.4 57.92 27.2 60.8 A3 3 0 0 1 21.8 58.56 Q23 52.8 25 48 Z" fill="url(#l3)"/>
  <path d="M36 40 Q39.4 49.92 38.2 52.8 A3 3 0 0 1 32.8 50.56 Q34 44.8 36 40 Z" fill="none" stroke="#17130F" stroke-width="3.2" stroke-linecap="round" stroke-linejoin="round" stroke-opacity="0.55"/>
  <path d="M36 40 Q39.4 49.92 38.2 52.8 A3 3 0 0 1 32.8 50.56 Q34 44.8 36 40 Z" fill="url(#l4)"/>
  <path d="M47 48 Q50.4 57.92 49.2 60.8 A3 3 0 0 1 43.8 58.56 Q45 52.8 47 48 Z" fill="none" stroke="#17130F" stroke-width="3.2" stroke-linecap="round" stroke-linejoin="round" stroke-opacity="0.55"/>
  <path d="M47 48 Q50.4 57.92 49.2 60.8 A3 3 0 0 1 43.8 58.56 Q45 52.8 47 48 Z" fill="url(#l5)"/>
</svg>
